REM SOURCE "http://en.wikipedia.org/wiki/Cue_sheet_(computing)"
REM GENRE "Electronica / trip hop"
REM DATE 1998
PERFORMER "Faithless (Album artist)"
TITLE "Live in Berlin"
FILE "Faithless - Live in Berlin (CD1).mp3" MP3
  TRACK 01 AUDIO
  	TITLE "Reverence"
	  PERFORMER "Faithless"
    INDEX 01 00:00:00
  TRACK 02 AUDIO
    TITLE "She's My Baby"
    PERFORMER "Faithless"
    INDEX 00 06:40:27
    INDEX 01 06:42:27
  TRACK 03 AUDIO
    TITLE "Take the Long Way Home"
    PERFORMER "Faithless"
    PREGAP 00:02:00
    INDEX 01 10:54:00
  TRACK 04 AUDIO
    TITLE "Insomnia"
    PERFORMER "Faithless"
    INDEX 01 17:04:00
FILE "Faithless - Live in Berlin (CD2).mp3" MP3
	TRACK 05 AUDIO
		TITLE "Bring the Family Back"
		PERFORMER "Faithless"
		INDEX 01 25:44:00
	TRACK 06 AUDIO
		TITLE "Salva Mea"
		PERFORMER "Faithless"
		INDEX 01 30:50:00
	TRACK 07 AUDIO
		TITLE "Dirty Old Man"
		PERFORMER "Faithless"
		INDEX 01 38:24:00
	TRACK 08 AUDIO
		TITLE "God Is a DJ"
		PERFORMER "Faithless"
		INDEX 01 42:35:00
